PathFileType	4	(X/Y/Z)	Patient4_TMGait_0pt4_01_left_36.trc.trc
DataRate	CameraRate	NumFrames	NumMarkers	Units	OrigDataRate	OrigDataStartFrame	OrigNumFrames
73.684210526316	73.684210526316	6	33	mm	73.684210526316	89	       141
Frame#	Time	Sacral			L.Shoulder			Chest			R.Shoulder			Neck			R.ASIS			L.ASIS			R.Thigh.Superior			R.Thigh.Lateral			R.Thigh.Inferior			R.Patella			L.Thigh.Superior			L.Thigh.Lateral			L.Thigh.Inferior			L.Patella			L.Shank.Superior			L.Shank.Lateral			L.Shank.Inferior			R.Shank.Superior			R.Shank.Lateral			R.Shank.Inferior			R.Heel			R.Midfoot.Superior			R.Midfoot.Lateral			R.Toe			L.Heel			L.Midfoot.Lateral			L.Midfoot.Superior			L.Toe			L.Elbow			L.Wrist			R.Elbow			R.Wrist			
		X1	Y1	Z1	X2	Y2	Z2	X3	Y3	Z3	X4	Y4	Z4	X5	Y5	Z5	X6	Y6	Z6	X7	Y7	Z7	X8	Y8	Z8	X9	Y9	Z9	X10	Y10	Z10	X11	Y11	Z11	X12	Y12	Z12	X13	Y13	Z13	X14	Y14	Z14	X15	Y15	Z15	X16	Y16	Z16	X17	Y17	Z17	X18	Y18	Z18	X19	Y19	Z19	X20	Y20	Z20	X21	Y21	Z21	X22	Y22	Z22	X23	Y23	Z23	X24	Y24	Z24	X25	Y25	Z25	X26	Y26	Z26	X27	Y27	Z27	X28	Y28	Z28	X29	Y29	Z29	X30	Y30	Z30	X31	Y31	Z31	X32	Y32	Z32	X33	Y33	Z33	

89	46.034285714286	840.366022475631	995.677428535252	514.284429744277	1000.821611989496	1431.325927183031	325.669240077842	1104.817367119890	1370.177743919236	488.984506440756	1014.721616599206	1439.831399797650	661.371983397029	980.748647487606	1494.107242605092	482.502941621184	1074.728806326806	945.765165283122	629.767055337403	1054.441512866910	962.090108033627	355.783020749869	1129.485207699632	747.429523113347	600.680419214080	1057.136174418249	633.304045219734	662.215407258049	1138.282908047779	586.144040297168	582.074940095299	1145.451372872942	496.317274277621	590.105110248830	1098.886020741152	743.331942691153	370.558445154177	1008.922675191027	631.962298713238	300.119785914363	1098.610520869619	546.043928966189	349.348752157879	1091.992596942900	462.537163520644	342.160161971486	1027.385132115998	403.522328223550	338.264316230781	888.325105201074	350.063202070595	296.789119758807	889.026733880195	219.404213989621	349.526908503086	1115.670495441748	406.583306158504	597.066273731137	1044.447284629428	302.893992370237	658.239531627521	1086.742776057138	207.475600945577	596.245526137102	954.275194448145	43.831088455984	565.125984813904	1123.901910036114	96.768377119856	603.687560591277	1035.891077660342	37.594759536985	642.411283934717	1244.597042892746	43.318933020950	635.912987802773	709.552846607780	130.257089930535	396.036044910423	768.751681033171	92.680052869411	313.649612739460	870.929317979461	118.404739726595	329.393538092793	963.784887159851	33.292766699181	299.749731869278	990.868984638515	1081.159741071163	203.267959259516	1152.076122656072	874.193470917661	190.602518152313	983.556527117598	1099.408732905960	795.129681887806	1154.493247443911	905.353899959055	771.790208367242	
90	46.047857142857	840.826055165361	995.940474508196	518.883087283017	999.159723428588	1431.374038424825	328.907577293819	1104.903883120874	1370.517848613467	491.271193182041	1016.610301859021	1440.330918618850	664.475295243621	980.517391726282	1494.332944996554	485.831040065786	1075.764200744456	945.826330537245	632.455241203194	1053.634290643027	962.387451266163	358.760729441850	1128.732075572617	746.781403407627	604.106600940547	1054.940010665030	633.183236520823	665.036768305605	1135.961249503185	585.527583411066	585.175807833690	1142.153486240109	495.671335318533	592.846851354336	1103.763096057048	746.267380192357	373.497045076233	1018.617932868695	633.051003328252	301.433779794386	1110.610097091493	549.106062014910	350.855023463940	1105.269142578116	464.541315304929	342.854817558333	1039.035334292223	405.327109340556	338.866109187121	898.258786117765	356.411689863151	297.186445883724	894.925474748423	225.792005626961	349.857969413388	1111.984317068446	406.088958909322	599.282384603004	1040.167358907286	302.454491431644	659.841402219585	1082.072514648534	207.163408011874	597.375085267428	948.850323098760	43.850832551831	565.334552649569	1118.503360096545	96.550880853671	603.957642405260	1030.459386083701	37.521466778424	642.632730172884	1239.229970650966	43.001101218130	636.172427013085	711.948628078607	144.928184077790	396.013044262949	769.497126848521	104.272299146851	313.656783358572	873.183232386242	124.327210056491	329.581765992639	960.786875235973	32.964009069265	300.001126955988	986.468007876539	1080.576388701485	208.412091189055	1139.725686993848	867.743543061962	193.595887818146	990.673171656660	1100.526470608178	800.836870247785	1169.597813077923	914.716348029499	774.472131407588	
91	46.061428571429	841.029322153441	996.235848101849	523.265443244224	997.402354597646	1431.392205955599	332.005153724401	1104.916288770893	1370.746057700319	493.341626005656	1018.561993924900	1440.779100587740	667.402951011238	980.347532557866	1494.561940124977	489.001866559592	1076.489747855750	945.855668801292	634.906541948523	1052.560971952885	962.656312454182	361.435676434090	1127.705287758835	746.218234022700	607.268627408067	1052.544163323427	633.114986941418	667.712526881588	1133.411963133390	584.964122761850	588.126581501436	1138.609428972603	495.090972167669	595.509426866498	1108.244430975026	749.526241439256	376.200551842444	1027.868431750204	634.568431593547	302.672208502657	1122.077380343003	552.760008461570	352.265240942794	1118.216166679854	467.239900435800	343.652723351890	1050.649055493195	407.628714897481	339.553645802535	908.419322515295	362.772724508583	297.693994284783	901.478650858130	232.293578842116	350.455567951769	1108.102656573179	405.662562990979	601.444866175915	1035.678811210895	302.079744545681	661.422004559437	1077.289641023814	206.916701273215	598.524089693428	943.362869065108	43.895308603856	565.546016916345	1113.109200274397	96.383029854355	604.310066976238	1024.974965001491	37.448899140689	642.843694899769	1233.803666272354	42.679558086870	636.405423001570	715.547320193633	158.901378984886	396.374885109540	771.540215867916	115.772143519655	313.919408315923	876.454621212302	130.641510049680	330.074711707897	959.230652355463	33.153548187403	300.181200372749	981.993069144196	1079.984496927357	213.422110218850	1126.844685762755	861.502689736330	196.663627369602	998.131583443273	1101.680899774318	806.337671837186	1184.514827966459	924.341929875970	776.951345020570	
92	46.075000000000	841.001039276963	996.591276346539	527.399886199223	995.573868692332	1431.449069032198	334.956042871992	1104.843206318917	1370.919957310723	495.203601823628	1020.516892474450	1441.208624693723	670.145005982904	980.226875842769	1494.840669498137	492.002984606562	1076.924406688231	945.906801204247	637.132620587048	1051.251487397543	962.947148557592	363.825258767425	1126.421153105933	745.763866587293	610.121184425426	1049.981547938388	633.125168292644	670.218256187363	1130.637149893411	584.468741694053	590.879407365781	1134.830675541401	494.597535386235	598.047429514795	1112.220433448829	753.092597348781	378.630595560830	1036.412069691271	636.526921154952	303.833036142741	1132.773301481853	556.984520843895	353.465568939095	1130.582853259787	470.620841162140	344.400469891153	1062.003203660592	410.420453422079	340.222151117659	918.575299725181	368.945609949504	298.311328205960	908.674593530158	238.636508061841	351.241659705897	1104.039955478496	405.326496465874	603.522842457507	1031.003934698053	301.799647547373	662.964605294019	1072.416255308816	206.757630495547	599.680712402910	937.841401359495	43.971947434672	565.768112597074	1107.749765714764	96.294387179948	604.763078799216	1019.468164910288	37.384424156332	643.050083190651	1228.344420873445	42.371698022736	636.614257216643	720.430788250620	171.437638333545	397.130972270525	775.044618021967	126.537506793227	314.433507798572	880.899866076567	137.029370953223	330.778547354045	959.565928693202	33.974105746670	300.205067445486	977.409331497211	1079.459289954726	218.291844959051	1113.469967097492	855.614637015739	199.830451494277	1005.948815207812	1102.877479214206	811.537743370923	1199.217832078524	934.140115888737	779.189639970170	
93	46.088571428571	840.770722703832	997.040475242678	531.267419724350	993.704192932614	1431.612230064494	337.760122846248	1104.680266373132	1371.100625998116	496.874376811006	1022.420305528407	1441.655014839623	672.699344977744	980.139632792905	1495.211932984374	494.828729913005	1077.095853849215	946.026265722655	639.152597648375	1049.741677214948	963.315085486349	365.962129600713	1124.885982793218	745.424183786735	612.651326640375	1047.247305224747	633.229778392325	672.532569177975	1127.617529365651	584.047951600156	593.403799744350	1130.804847444605	494.208024975051	600.419469834228	1115.610341834571	756.931299983826	380.767374506544	1044.039329928046	638.905772360706	304.908779016950	1142.512020230980	561.721582498866	354.352825275691	1142.152723634624	474.639466169892	344.951957545519	1072.916462773193	413.663595462159	340.764598534462	928.542575586099	374.701599916149	299.013302259063	916.540245730562	244.521423061190	352.109957242733	1099.789156278524	405.098276714019	605.487632977219	1026.147777669738	301.634961075578	664.446638175043	1067.460854499861	206.702147465366	600.829760039276	932.309067228905	44.084804721525	566.003379909449	1102.440702262816	96.298727228170	605.315437301721	1013.962073033085	37.333060606513	643.254460692848	1222.872210003583	42.091794524996	636.800596771594	726.692191572422	181.830512708650	398.237852538480	780.175442636477	135.924364036406	315.151195471098	886.699278363078	143.119731911883	331.568160925469	962.235196667781	35.462968332277	299.977610422989	972.675851193726	1079.081916092059	223.014457986628	1099.654982580138	850.219974380719	203.115577689316	1014.115803569724	1104.130177754636	816.349308989860	1213.681349111604	944.041582975916	781.144106694714	
94	46.102142857143	840.367430312233	997.616443488872	534.858503873526	991.827366941561	1431.937487032124	340.421593024985	1104.431403998587	1371.341297384888	498.377906437240	1024.229005235471	1442.148499728507	675.071216320972	980.069845457416	1495.707154385014	497.480011869178	1077.034387755094	946.245230857633	640.986928128361	1048.068101780997	963.808708969706	367.885815834840	1123.101064929530	745.190153285355	614.867799771450	1044.315122649804	633.434350239463	674.637511132111	1124.323589650901	583.700238639737	595.682118161691	1126.507040244267	493.933238460692	602.589897364090	1118.365022250594	760.987010146858	382.603978085673	1050.604239226468	641.650571045241	305.889806767072	1151.162713130877	566.875702157765	354.853409907706	1152.750905470891	479.218292583824	345.198063001479	1083.254712052696	417.285948389388	341.094502263248	938.198082246621	379.796632606087	299.752322554145	925.133732443494	249.647677183183	352.939798563404	1095.331808827260	404.988271786300	607.312727966034	1021.107135524031	301.595351258958	665.841678494155	1062.422798641635	206.757209820385	601.952606229828	926.781732936870	44.234056575445	566.249992311604	1097.181511040330	96.390766935081	605.943055018266	1008.471183118264	37.297380148176	643.456160164824	1217.399962359723	41.849428426376	636.965267275455	734.433911320717	189.475927129772	399.595475473128	787.090086245008	143.355065443842	315.978535921927	894.038175263817	148.527133537421	332.299947326094	967.622297230508	37.558558144994	299.400635341259	967.750092399808	1078.928204515726	227.579127258242	1085.473737837290	845.443713223657	206.529516453496	1022.598072290576	1105.454946342349	820.698607770458	1227.879474351907	953.998669870690	782.771142412478	
